<?xml version="1.0" encoding="utf-8"?>
<!-- Generator: Adobe Illustrator 16.0.0, SVG Export Plug-In . SVG Version: 6.00 Build 0)  -->
<!DOCTYPE svg PUBLIC "-//W3C//DTD SVG 1.1//EN" "http://www.w3.org/Graphics/SVG/1.1/DTD/svg11.dtd">
<svg version="1.1" id="Layer_1" xmlns="http://www.w3.org/2000/svg" xmlns:xlink="http://www.w3.org/1999/xlink" x="0px" y="0px"
	 width="40px" height="23px" viewBox="0 0 40 23" enable-background="new 0 0 40 23" xml:space="preserve">
<path fill="#003C58" d="M39.293,0.997h-4.316V0.569c0-0.151-0.059-0.295-0.161-0.402C34.713,0.06,34.572,0,34.427,0
	s-0.286,0.06-0.39,0.167c-0.103,0.107-0.16,0.251-0.16,0.402V0.99h-4.318c-0.188,0-0.367,0.077-0.5,0.214s-0.207,0.323-0.207,0.517
	c0,0.194,0.074,0.38,0.207,0.518c0.133,0.137,0.313,0.214,0.5,0.214h4.318v3.269h-3.791c-0.846,0-1.686-0.147-2.484-0.436
	l-1.936-0.706c-0.916-0.33-1.879-0.499-2.85-0.499h-5.63c-0.97,0-1.934,0.169-2.85,0.5l-1.932,0.704
	c-0.795,0.286-1.632,0.431-2.474,0.431H6.125V2.459h4.318c0.188,0,0.368-0.077,0.5-0.214s0.207-0.323,0.207-0.517
	c0-0.194-0.075-0.38-0.207-0.518s-0.313-0.214-0.5-0.214H6.125V0.569c0-0.151-0.058-0.295-0.161-0.402C5.861,0.06,5.721,0,5.575,0
	C5.429,0,5.289,0.06,5.186,0.167C5.083,0.273,5.025,0.418,5.025,0.569V0.99H0.707c-0.188,0-0.367,0.077-0.5,0.214S0,1.527,0,1.721
	c0,0.194,0.074,0.38,0.207,0.518c0.133,0.137,0.313,0.214,0.5,0.214h4.318v3.264H3.486c-0.168,0-0.335,0.034-0.49,0.101
	C2.84,5.884,2.699,5.981,2.58,6.104c-0.119,0.124-0.213,0.27-0.277,0.43C2.238,6.695,2.205,6.867,2.206,7.042v1.33
	C2.209,8.69,2.323,8.998,2.528,9.236s0.485,0.393,0.792,0.435l1.706,0.232v0.935c0,0.151,0.058,0.296,0.161,0.402
	c0.103,0.107,0.243,0.167,0.389,0.167c0.146,0,0.286-0.06,0.389-0.167c0.103-0.106,0.161-0.251,0.161-0.402v-0.785l2.199,0.299
	c1.345,0.183,2.619,0.737,3.686,1.604c1.524,1.236,3.404,1.911,5.341,1.916h2.095v1.893h-2.246c-0.419,0-0.821,0.172-1.117,0.479
	c-0.296,0.307-0.463,0.723-0.463,1.156v3.975c0.003,0.432,0.171,0.845,0.467,1.148C16.381,22.828,16.782,23,17.199,23h5.605
	c0.416,0,0.816-0.172,1.113-0.477c0.295-0.304,0.463-0.717,0.467-1.148v-3.967c-0.001-0.434-0.168-0.85-0.464-1.155
	c-0.296-0.307-0.698-0.479-1.116-0.479h-2.254v-1.896h2.098c1.938-0.006,3.816-0.681,5.341-1.917
	c1.067-0.868,2.34-1.422,3.685-1.606l2.199-0.299v0.783c0,0.151,0.059,0.296,0.162,0.402c0.103,0.107,0.242,0.167,0.389,0.167
	c0.146,0,0.285-0.06,0.389-0.167c0.103-0.106,0.16-0.251,0.16-0.402V9.907l1.711-0.236c0.306-0.042,0.586-0.197,0.79-0.436
	c0.204-0.239,0.317-0.545,0.321-0.864V7.06c0-0.174-0.033-0.347-0.098-0.507c-0.064-0.161-0.158-0.307-0.277-0.43
	s-0.26-0.221-0.416-0.287c-0.154-0.066-0.321-0.101-0.49-0.101h-1.541V2.459h4.32c0.188,0,0.367-0.077,0.5-0.214S40,1.922,40,1.728
	c0-0.194-0.074-0.38-0.207-0.518S39.48,0.997,39.293,0.997z M21.352,19.387c0,0.275-0.08,0.546-0.229,0.775
	c-0.148,0.23-0.358,0.408-0.605,0.515c-0.246,0.105-0.518,0.134-0.779,0.079c-0.262-0.054-0.502-0.187-0.691-0.382
	c-0.188-0.195-0.317-0.444-0.369-0.715c-0.052-0.271-0.025-0.552,0.077-0.807s0.275-0.474,0.497-0.627
	c0.222-0.153,0.483-0.235,0.75-0.235c0.358,0,0.702,0.147,0.954,0.409C21.209,18.661,21.352,19.017,21.352,19.387z"/>
</svg>
