<?xml version="1.0" encoding="utf-8"?>
<!-- Generator: Adobe Illustrator 16.0.0, SVG Export Plug-In . SVG Version: 6.00 Build 0)  -->
<!DOCTYPE svg PUBLIC "-//W3C//DTD SVG 1.1//EN" "http://www.w3.org/Graphics/SVG/1.1/DTD/svg11.dtd">
<svg version="1.1" id="Layer_1" xmlns="http://www.w3.org/2000/svg" xmlns:xlink="http://www.w3.org/1999/xlink" x="0px" y="0px"
	 width="30px" height="30px" viewBox="0 0 30 30" enable-background="new 0 0 30 30" xml:space="preserve">
<path fill="#010101" d="M29.438,1.458c-0.351-0.232-0.795-0.272-1.182-0.106l-8.287,3.553l-9.531-3.575l0,0
	c-0.044-0.013-0.089-0.024-0.134-0.031c-0.057-0.021-0.116-0.037-0.175-0.047c-0.043-0.002-0.085-0.002-0.128,0
	c-0.053-0.004-0.106-0.004-0.159,0c-0.047,0-0.091,0.022-0.138,0.031C9.65,1.294,9.598,1.31,9.547,1.329H9.519l-8.75,3.75
	C0.297,5.276-0.007,5.74,0,6.251v21.251c0,0.42,0.211,0.813,0.563,1.044c0.204,0.134,0.443,0.206,0.688,0.206
	c0.17-0.001,0.337-0.035,0.494-0.101l8.288-3.553l9.531,3.575c0,0,0.024,0,0.037,0c0.128,0.048,0.264,0.074,0.4,0.078
	c0.151-0.004,0.3-0.034,0.44-0.091h0.054l8.75-3.75c0.462-0.198,0.761-0.655,0.756-1.159V2.501C30,2.081,29.789,1.688,29.438,1.458z
	 M2.5,7.076l6.25-2.678v18.529L2.5,25.604V7.076z M11.25,4.304l7.5,2.813v18.583l-7.5-2.813V4.304z M27.5,22.927l-6.25,2.678V7.076
	l6.25-2.678V22.927z"/>
</svg>
