<svg xmlns="http://www.w3.org/2000/svg" width="20.952" height="15.293" viewBox="0 0 20.952 15.293">
  <g id="Group_71" data-name="Group 71" transform="translate(376.25 -165.96)">
    <path id="Path_173" data-name="Path 173" d="M-376.25,258.91a.625.625,0,0,1,.6-.294q8.01.01,16.021,0c.472,0,.6.133.6.611q0,4.5,0,9c0,.474-.138.615-.6.615q-8.02,0-16.041,0a.559.559,0,0,1-.578-.326Zm16.332.592h-15.447v8.45h15.447Z" transform="translate(0 -87.6)" fill="#fff" fill-rule="evenodd"/>
    <path id="Path_174" data-name="Path 174" d="M-282.346,175.689a.546.546,0,0,1-.469.342c-.2.025-.387.08-.582.108a.432.432,0,0,1-.528-.357.444.444,0,0,1,.4-.5c.072-.015.144-.032.232-.052l-1.6-8.319c-.359.067-.711.13-1.062.2l-12.459,2.392a1.138,1.138,0,0,1-.283.03.421.421,0,0,1-.39-.381.414.414,0,0,1,.334-.469c.392-.088.788-.157,1.182-.233l6.922-1.326,5.979-1.147a.44.44,0,0,1,.56.389q.514,2.668,1.024,5.337.352,1.836.7,3.672a.335.335,0,0,0,.033.073Z" transform="translate(-72.952)" fill="#fff" fill-rule="evenodd"/>
    <path id="Path_175" data-name="Path 175" d="M-309.289,213.035l-1.723.179-4.107.431-4.128.436-3.66.382c-.142.015-.285.035-.427.041a.43.43,0,0,1-.483-.392.422.422,0,0,1,.405-.47c1.009-.111,2.019-.216,3.029-.322q2.074-.219,4.148-.437l4.494-.468c.827-.086,1.654-.176,2.48-.264.1-.011.2-.023.306-.027a.424.424,0,0,1,.487.409q.187,1.738.368,3.477l.431,4.087c.059.556.121,1.111.175,1.667a.433.433,0,0,1-.412.525c-.3.042-.609.076-.914.1a.434.434,0,0,1-.47-.365.419.419,0,0,1,.351-.493c.166-.033.337-.045.535-.07Z" transform="translate(-49.57 -43.644)" fill="#fff" fill-rule="evenodd"/>
    <path id="Path_176" data-name="Path 176" d="M-341.527,282.851h5.215c.405,0,.53.115.573.521a.877.877,0,0,0,.807.787c.361.033.5.179.5.536q0,1.953,0,3.906c0,.339-.128.48-.466.523a.871.871,0,0,0-.846.88.434.434,0,0,1-.414.427,1.77,1.77,0,0,1-.2.007h-10.348c-.061,0-.123,0-.184,0a.429.429,0,0,1-.432-.429.878.878,0,0,0-.849-.881c-.342-.043-.464-.176-.464-.522q0-1.963,0-3.927a.447.447,0,0,1,.473-.516.874.874,0,0,0,.836-.825c.036-.357.179-.484.546-.485Zm-6.232,2.136a.477.477,0,0,0-.011.069c0,1.036,0,2.073,0,3.109,0,.129.065.156.16.191a1.69,1.69,0,0,1,1.048,1.048.206.206,0,0,0,.234.16q4.8,0,9.594,0a.2.2,0,0,0,.235-.157,1.671,1.671,0,0,1,1.046-1.048.206.206,0,0,0,.159-.236c-.006-.7,0-1.391,0-2.087v-1.044a1.724,1.724,0,0,1-1.175-1.04.309.309,0,0,0-.357-.228q-4.7.008-9.41,0a.547.547,0,0,0-.163,0c-.05.016-.117.051-.132.093A1.791,1.791,0,0,1-347.759,284.987Z" transform="translate(-26.104 -110.512)" fill="#fff" fill-rule="evenodd"/>
    <path id="Path_177" data-name="Path 177" d="M-262.5,310.695a2.4,2.4,0,0,1,2.4-2.411,2.4,2.4,0,0,1,2.407,2.421,2.413,2.413,0,0,1-2.4,2.393A2.406,2.406,0,0,1-262.5,310.695Zm2.392,1.524a1.528,1.528,0,0,0,1.544-1.523,1.543,1.543,0,0,0-1.536-1.539,1.536,1.536,0,0,0-1.53,1.519A1.522,1.522,0,0,0-260.11,312.218Z" transform="translate(-107.541 -134.557)" fill="#fff" fill-rule="evenodd"/>
  </g>
</svg>
