<svg xmlns="http://www.w3.org/2000/svg" width="26.91" height="17.139" viewBox="0 0 26.91 17.139">
  <g id="Group_70" data-name="Group 70" transform="translate(-312.56 -132.855)" opacity="0.71">
    <path id="Path_170" data-name="Path 170" d="M339.47,134.518a2.011,2.011,0,0,1-1.035.942c-1.291.631-2.585,1.255-3.877,1.885-.133.065-.258.146-.418.237.33.1.632.181.919.295.335.133.656.3.983.449a1.431,1.431,0,0,1,.8,1.159,1.387,1.387,0,0,1-.927,1.728,1.921,1.921,0,0,1-1.091,0q-1.839-.514-3.672-1.049a.335.335,0,0,0-.35.066c-.348.282-.7.553-1.08.845a5.106,5.106,0,0,1,.589.208,9.815,9.815,0,0,1,1.2.644,1.584,1.584,0,0,1,.45,1.935,1.477,1.477,0,0,1-1.666.823c-.76-.154-1.51-.361-2.258-.566-.544-.15-1.081-.328-1.618-.507a.442.442,0,0,0-.431.057c-1.968,1.287-3.927,2.589-5.919,3.838a22.417,22.417,0,0,1-4.317,2.177c-.338.121-.694.194-1.043.282a1.125,1.125,0,0,1-.965-.216,2.83,2.83,0,0,1-1.165-2.137,4.44,4.44,0,0,1-.017-.449.818.818,0,0,1,.8-.923,11.434,11.434,0,0,1,1.242.013c.442.008.885.034,1.326.018a1.66,1.66,0,0,0,.567-.152,34.77,34.77,0,0,0,5.212-2.895c.47-.3.944-.6,1.43-.906-.1-.077-.187-.151-.28-.216a1.411,1.411,0,0,1-.56-1.482,1.661,1.661,0,0,1,2.163-1.362c.677.174,1.336.426,2,.657a.352.352,0,0,0,.386-.064c.4-.324.815-.635,1.218-.947-.21-.156-.411-.293-.6-.449a.674.674,0,0,1-.195-.259,1.947,1.947,0,0,1,.177-1.962,1.283,1.283,0,0,1,1.368-.495c.73.157,1.446.38,2.163.59a.529.529,0,0,0,.438-.037q3.032-1.589,6.069-3.169a1.421,1.421,0,0,1,.859-.26,1.111,1.111,0,0,1,.991.818c.056.166.089.34.133.51Z" fill="#fff" fill-rule="evenodd"/>
  </g>
</svg>
