<svg xmlns="http://www.w3.org/2000/svg" width="16.261" height="16.261" viewBox="0 0 16.261 16.261">
  <g id="settings" transform="translate(-0.5 -0.5)">
    <circle id="Ellipse_24" data-name="Ellipse 24" cx="2" cy="2" r="2" transform="translate(6.631 6.631)" fill="none" stroke="#fff" stroke-linecap="round" stroke-linejoin="round" stroke-width="1"/>
    <path id="Path_172" data-name="Path 172" d="M13.764,10.712a1.145,1.145,0,0,0,.229,1.263l.042.042a1.388,1.388,0,1,1-1.963,1.963l-.042-.042a1.154,1.154,0,0,0-1.956.819v.118a1.387,1.387,0,0,1-2.775,0v-.062a1.145,1.145,0,0,0-.749-1.047,1.145,1.145,0,0,0-1.263.229l-.042.042a1.388,1.388,0,1,1-1.963-1.963l.042-.042a1.154,1.154,0,0,0-.819-1.956H2.387a1.387,1.387,0,1,1,0-2.775H2.45A1.145,1.145,0,0,0,3.5,6.55a1.145,1.145,0,0,0-.229-1.263l-.042-.042A1.388,1.388,0,1,1,5.19,3.282l.042.042a1.145,1.145,0,0,0,1.263.229H6.55a1.145,1.145,0,0,0,.694-1.047V2.387a1.387,1.387,0,1,1,2.775,0V2.45a1.154,1.154,0,0,0,1.956.819l.042-.042A1.388,1.388,0,1,1,13.979,5.19l-.042.042a1.145,1.145,0,0,0-.229,1.263V6.55a1.145,1.145,0,0,0,1.047.694h.118a1.387,1.387,0,1,1,0,2.775h-.062A1.145,1.145,0,0,0,13.764,10.712Z" fill="none" stroke="#fff" stroke-linecap="round" stroke-linejoin="round" stroke-width="1"/>
  </g>
</svg>
