<svg xmlns="http://www.w3.org/2000/svg" width="204.66" height="57.272" viewBox="0 0 204.66 57.272">
  <g id="final-spaculus-logo" transform="translate(-37.608 -42.142)">
    <g id="Group_1" data-name="Group 1" transform="translate(82.227 42.142)">
      <path id="Path_1" data-name="Path 1" d="M360.458,169.3q-.54.784-1.127,1.52t-1.127,1.52a5.977,5.977,0,0,0-.956-.686,3.546,3.546,0,0,0-1.887-.441,2.222,2.222,0,0,0-1.569.466,1.385,1.385,0,0,0-.392,1.25,1.358,1.358,0,0,0,.735.956,11.581,11.581,0,0,0,1.5.711q.857.344,1.838.784a8.553,8.553,0,0,1,1.814,1.1,5,5,0,0,1,1.912,4.191,6.483,6.483,0,0,1-.27,1.667,5.829,5.829,0,0,1-.956,1.912,5.431,5.431,0,0,1-1.912,1.569,6.913,6.913,0,0,1-3.186.637,10.011,10.011,0,0,1-3.48-.613,6.545,6.545,0,0,1-2.647-1.691q.636-.735,1.225-1.5t1.225-1.5a13.575,13.575,0,0,0,1.814,1,4.85,4.85,0,0,0,1.912.319c.032,0,.155-.008.368-.025a2.213,2.213,0,0,0,.711-.2,2.136,2.136,0,0,0,.711-.515,1.648,1.648,0,0,0,.368-1.029,1.564,1.564,0,0,0-.49-1.348,4.561,4.561,0,0,0-1.4-.784q-.858-.318-1.887-.637a8.27,8.27,0,0,1-1.936-.882,4.388,4.388,0,0,1-1.495-1.593,5.52,5.52,0,0,1-.588-2.745,5.072,5.072,0,0,1,.588-2.549,5.477,5.477,0,0,1,1.471-1.691,5.837,5.837,0,0,1,1.912-.956,6.845,6.845,0,0,1,1.863-.294,9.059,9.059,0,0,1,1.2.1,8.112,8.112,0,0,1,1.446.343,8.732,8.732,0,0,1,1.446.637A4.894,4.894,0,0,1,360.458,169.3Z" transform="translate(-348.742 -149.305)" fill="#2b8be9"/>
      <path id="Path_2" data-name="Path 2" d="M492.815,176.851a9.327,9.327,0,0,1-.76,3.725,9.814,9.814,0,0,1-2.083,3.088,9.663,9.663,0,0,1-3.137,2.083,9.926,9.926,0,0,1-3.872.76,9.2,9.2,0,0,1-2.622-.343,10.559,10.559,0,0,1-1.936-.76,6.3,6.3,0,0,1-1.225-.809q-.441-.392-.441-.539c.065.164.147.343.245.539s.179.376.245.539v13.186h-4.068V167.685h3.382a8.891,8.891,0,0,0,.074,1.152q.074.564.122,1.152,0-.147.49-.588a7.357,7.357,0,0,1,1.324-.907,12.383,12.383,0,0,1,1.961-.858,7.419,7.419,0,0,1,2.451-.392,9.927,9.927,0,0,1,3.872.76,9.678,9.678,0,0,1,3.137,2.083,9.9,9.9,0,0,1,2.083,3.064A9.151,9.151,0,0,1,492.815,176.851Zm-4.118,0a5.482,5.482,0,0,0-1.593-4.044,6.182,6.182,0,0,0-8.284,0,5.48,5.48,0,0,0-1.593,4.044,5.582,5.582,0,0,0,1.593,4.044,6.045,6.045,0,0,0,8.284,0A5.585,5.585,0,0,0,488.7,176.851Z" transform="translate(-455.317 -149.303)" fill="#2b8be9"/>
      <path id="Path_3" data-name="Path 3" d="M646.454,176.9a9.2,9.2,0,0,1,.76-3.676,9.8,9.8,0,0,1,2.083-3.088,10,10,0,0,1,3.137-2.108,9.657,9.657,0,0,1,3.872-.784,7.422,7.422,0,0,1,2.451.392,12.443,12.443,0,0,1,1.961.858,7.4,7.4,0,0,1,1.323.907q.489.441.49.588a6.818,6.818,0,0,1,.1-1.127,7.169,7.169,0,0,0,.1-1.176h3.382v18.382h-3.578v-2.01q0,.147-.441.539a6.328,6.328,0,0,1-1.225.809,10.611,10.611,0,0,1-1.936.76,9.207,9.207,0,0,1-2.622.343,9.923,9.923,0,0,1-3.872-.76,9.653,9.653,0,0,1-3.137-2.083,9.876,9.876,0,0,1-2.083-3.063A9.134,9.134,0,0,1,646.454,176.9Zm4.117-.049a5.582,5.582,0,0,0,1.593,4.044,6.045,6.045,0,0,0,8.284,0,5.585,5.585,0,0,0,1.593-4.044,5.482,5.482,0,0,0-1.593-4.044,6.181,6.181,0,0,0-8.284,0A5.479,5.479,0,0,0,650.571,176.851Z" transform="translate(-603.76 -149.303)" fill="#2b8be9"/>
      <path id="Path_4" data-name="Path 4" d="M829.811,181.314q.636.784,1.225,1.544t1.225,1.544a10.48,10.48,0,0,1-2.818,1.544,9.587,9.587,0,0,1-3.309.564,9.773,9.773,0,0,1-6.961-2.843,9.88,9.88,0,0,1-2.083-3.063,9.572,9.572,0,0,1,0-7.475,9.521,9.521,0,0,1,2.083-3.064,9.954,9.954,0,0,1,3.113-2.059,9.745,9.745,0,0,1,3.848-.76,9.942,9.942,0,0,1,3.382.564,10.417,10.417,0,0,1,2.843,1.544q-.638.785-1.274,1.52t-1.274,1.52a5.959,5.959,0,0,0-3.676-1.176,5.6,5.6,0,0,0-4.142,1.593,5.479,5.479,0,0,0-1.593,4.044,5.582,5.582,0,0,0,1.593,4.044,5.51,5.51,0,0,0,4.142,1.642A5.673,5.673,0,0,0,829.811,181.314Z" transform="translate(-749.275 -149.305)" fill="#2b8be9"/>
      <path id="Path_5" data-name="Path 5" d="M976.761,189.143h-4.068V186.2L972.84,184a8.038,8.038,0,0,1-3.162,3.75,8.77,8.77,0,0,1-4.828,1.4,6.508,6.508,0,0,1-4.559-1.52,5.431,5.431,0,0,1-1.765-3.971V170.32h4.068v11.47a3.445,3.445,0,0,0,3.676,3.333,6.727,6.727,0,0,0,2.426-.441,6.567,6.567,0,0,0,2.034-1.225,6.138,6.138,0,0,0,1.421-1.863,5.187,5.187,0,0,0,.539-2.353V170.32h4.068Z" transform="translate(-871.079 -151.938)" fill="#2b8be9"/>
      <path id="Path_6" data-name="Path 6" d="M1135.2,78.905h-4.068V42.142h4.068Z" transform="translate(-1018.93 -42.142)" fill="#2b8be9"/>
      <path id="Path_7" data-name="Path 7" d="M1223.881,189.143h-4.068V186.2l.147-2.206a8.038,8.038,0,0,1-3.162,3.75,8.77,8.77,0,0,1-4.828,1.4,6.508,6.508,0,0,1-4.559-1.52,5.432,5.432,0,0,1-1.765-3.971V170.32h4.069v11.47a3.445,3.445,0,0,0,3.676,3.333,6.729,6.729,0,0,0,2.427-.441,6.569,6.569,0,0,0,2.034-1.225,6.141,6.141,0,0,0,1.422-1.863,5.188,5.188,0,0,0,.539-2.353V170.32h4.068Z" transform="translate(-1082.76 -151.938)" fill="#2b8be9"/>
      <path id="Path_8" data-name="Path 8" d="M1389.622,169.3q-.54.784-1.127,1.52t-1.127,1.52a5.969,5.969,0,0,0-.956-.686,3.546,3.546,0,0,0-1.887-.441,2.223,2.223,0,0,0-1.569.466,1.385,1.385,0,0,0-.392,1.25,1.358,1.358,0,0,0,.735.956,11.581,11.581,0,0,0,1.495.711q.857.344,1.838.784a8.548,8.548,0,0,1,1.814,1.1,5,5,0,0,1,1.912,4.191,6.5,6.5,0,0,1-.27,1.667,5.836,5.836,0,0,1-.956,1.912,5.432,5.432,0,0,1-1.912,1.569,6.912,6.912,0,0,1-3.186.637,10.011,10.011,0,0,1-3.48-.613,6.546,6.546,0,0,1-2.647-1.691q.636-.735,1.225-1.5t1.226-1.5a13.578,13.578,0,0,0,1.814,1,4.849,4.849,0,0,0,1.912.319c.032,0,.155-.008.368-.025a2.213,2.213,0,0,0,.711-.2,2.138,2.138,0,0,0,.711-.515,1.647,1.647,0,0,0,.368-1.029,1.564,1.564,0,0,0-.49-1.348,4.564,4.564,0,0,0-1.4-.784q-.858-.318-1.887-.637a8.277,8.277,0,0,1-1.936-.882,4.389,4.389,0,0,1-1.495-1.593,5.519,5.519,0,0,1-.588-2.745,5.072,5.072,0,0,1,.588-2.549,5.478,5.478,0,0,1,1.47-1.691,5.842,5.842,0,0,1,1.912-.956,6.845,6.845,0,0,1,1.863-.294,9.063,9.063,0,0,1,1.2.1,8.119,8.119,0,0,1,1.446.343,8.728,8.728,0,0,1,1.446.637A4.879,4.879,0,0,1,1389.622,169.3Z" transform="translate(-1230.317 -149.305)" fill="#2b8be9"/>
    </g>
    <g id="Group_3" data-name="Group 3" transform="translate(37.608 57.753)">
      <g id="Group_2" data-name="Group 2" transform="translate(2.151 4.241)">
        <path id="Path_9" data-name="Path 9" d="M173.753,375.388c.3,0,.641-.039.746-.322a.634.634,0,0,0-.106-.643.983.983,0,0,0-.726-.169h-1.407v1.136Z" transform="translate(-155.1 -346.479)" fill="#232527"/>
        <path id="Path_10" data-name="Path 10" d="M177.128,263.111c.4,0,.845-.045.834-.591s-.6-.547-1-.546c-1.507,0-2.839,0-4.7,0v.164h0v.989C173.693,263.125,175.535,263.113,177.128,263.111Z" transform="translate(-155.1 -250.301)" fill="#232527"/>
        <path id="Path_11" data-name="Path 11" d="M246.11,275.744a13.587,13.587,0,0,0-1.479-3.12,12.527,12.527,0,0,0-3.382-3.3,4.765,4.765,0,0,0-2.506-1.088c-.25-.006-.556-.095-.71.181-.173.313.063.532.258.744a.3.3,0,0,1,.291.143,9.315,9.315,0,0,1,2.676,1.524c.37.371,1.926,1.782,2.231,2.215a17.454,17.454,0,0,1,1.389,2.594,12.461,12.461,0,0,1,.6,4.153c-.014.268.016.529.4.54.348.01.624-.06.7-.442a3.2,3.2,0,0,0,.05-.567A15.125,15.125,0,0,0,246.11,275.744Z" transform="translate(-211.391 -255.646)" fill="#232527"/>
        <path id="Path_12" data-name="Path 12" d="M183.553,180.594c-2.2,0-4.4-.01-6.6.006-.457,0-1.146-.219-1.13.581s.718.525,1.161.538c1.171.033,2.343.011,3.515.012l9.687,0c.1,0,.192-.007.287,0,.432.038.731-.143.724-.582s-.348-.562-.754-.561Q187,180.6,183.553,180.594Z" transform="translate(-158.152 -180.574)" fill="#232527"/>
        <path id="Path_13" data-name="Path 13" d="M175.877,405.436a.418.418,0,0,0,.42-.409.5.5,0,0,0-.237-.557,1.421,1.421,0,0,0-.737-.215h-3.064v1.2H175C175.261,405.457,175.614,405.453,175.877,405.436Z" transform="translate(-155.1 -372.178)" fill="#232527"/>
        <path id="Path_14" data-name="Path 14" d="M176.437,212q3.338,0,6.675,0c2.273,0,4.546-.014,6.819.012.456.005.789-.124.8-.561.017-.462-.354-.6-.786-.6q-6.747.006-13.494,0c-.427,0-.879.027-.891.582C175.552,212.017,176.016,212,176.437,212Z" transform="translate(-157.932 -206.509)" fill="#232527"/>
        <path id="Path_15" data-name="Path 15" d="M172.846,308.813c.165,0,.733,0,.853,0,.3,0,.377-.379.377-.549,0-.281-.117-.553-.422-.553l-.624,0c-.242,0-.771,0-.771,0v1.094Z" transform="translate(-155.1 -289.48)" fill="#232527"/>
        <path id="Path_16" data-name="Path 16" d="M208.737,378.177c-.456-.275-.6.08-.751.345a14.012,14.012,0,0,1-1.277,1.824,10.132,10.132,0,0,1-3.718,2.837,11.046,11.046,0,0,1-4.6.931c-.81,0-1.36.008-1.911,0-.408-.008-.732.09-.723.57.008.453.348.521.707.519a22.806,22.806,0,0,0,4.222-.171,11.909,11.909,0,0,0,8.28-5.929A.572.572,0,0,0,208.737,378.177Z" transform="translate(-175.233 -349.754)" fill="#232527"/>
        <path id="Path_17" data-name="Path 17" d="M226.475,339.269c-.3.1-1.162.007-.842.762.223.525.808.345,1.273.252.07-.013.137-.042.207-.058a4.1,4.1,0,0,0,1.3-.506A10.888,10.888,0,0,0,231.2,337.6a9.615,9.615,0,0,0,2.65-6.642,7.448,7.448,0,0,0-.263-1.911c-.1-.26-.28-.507-.583-.383-.236.1-.531.24-.469.615.035.211.038.426.064.64a8.236,8.236,0,0,1-1.966,6.608A8.886,8.886,0,0,1,226.475,339.269Z" transform="translate(-200.76 -307.402)" fill="#232527"/>
        <path id="Path_18" data-name="Path 18" d="M178.035,324.031a2.378,2.378,0,0,1,1.589.454,1.972,1.972,0,0,1,.289,2.906c-.253.313-.393.628-.015.927.322.254.573.125.852-.171a2.84,2.84,0,0,0,.581-3.3,2.97,2.97,0,0,0-2.808-1.909c-1.293-.011-2.675,0-3.968,0h-2.3v1.091Z" transform="translate(-155.099 -302.52)" fill="#232527"/>
        <path id="Path_19" data-name="Path 19" d="M184.727,226.855c.425,0,.964,0,.947-.54-.014-.464-.422-.557-.871-.553-2.319.017-4.626.008-6.945.008h-1.375q-2.069,0-4.223,0v1.087C176.7,226.855,180.6,226.853,184.727,226.855Z" transform="translate(-155.1 -219.281)" fill="#232527"/>
        <path id="Path_20" data-name="Path 20" d="M175.78,360.112c.392,0,.494-.286.494-.6a.5.5,0,0,0-.526-.547c-.635,0-1.125-.028-1.744-.027-.551,0-1.458-.025-1.745-.024v1.2Z" transform="translate(-155.1 -333.34)" fill="#232527"/>
        <path id="Path_21" data-name="Path 21" d="M52.852,410.414l.079.245.2-.163.252.055-.041-.254.173-.19-.241-.091-.079-.245-.2.163-.252-.055.042.254-.174.19Z" transform="translate(-52.61 -376.902)" fill="#2b8be9"/>
        <path id="Path_22" data-name="Path 22" d="M54.42,400.878l-.052-.168-.131.111-.166-.037.028.174-.114.13.159.062.051.168.132-.112.166.038-.028-.174.115-.13Z" transform="translate(-53.787 -369.141)" fill="#2b8be9"/>
        <path id="Path_23" data-name="Path 23" d="M61.931,405.043l.087-.1L61.9,404.9l-.039-.123-.1.082-.127-.028.021.128-.087.1.121.046.04.123.1-.082.127.028Z" transform="translate(-60.28 -372.626)" fill="#2b8be9"/>
      </g>
      <circle id="Ellipse_1" data-name="Ellipse 1" cx="0.755" cy="0.755" r="0.755" transform="translate(33.718 4.049)" fill="#232527"/>
      <path id="Path_24" data-name="Path 24" d="M272.788,210.108a.755.755,0,1,1-.755-.755A.755.755,0,0,1,272.788,210.108Z" transform="translate(-237.768 -200.985)" fill="#232527" fill-rule="evenodd"/>
      <path id="Path_25" data-name="Path 25" d="M237.925,266.846a.755.755,0,1,1-.755-.755A.755.755,0,0,1,237.925,266.846Z" transform="translate(-207.905 -249.586)" fill="#232527" fill-rule="evenodd"/>
      <path id="Path_26" data-name="Path 26" d="M274.362,329.32a.755.755,0,1,1-.755-.755A.755.755,0,0,1,274.362,329.32Z" transform="translate(-239.116 -303.101)" fill="#232527" fill-rule="evenodd"/>
      <path id="Path_27" data-name="Path 27" d="M281.045,378.341a.755.755,0,1,1-.755-.755A.755.755,0,0,1,281.045,378.341Z" transform="translate(-244.84 -345.092)" fill="#232527" fill-rule="evenodd"/>
      <path id="Path_28" data-name="Path 28" d="M192.082,404.5a.755.755,0,1,1-.755-.756A.755.755,0,0,1,192.082,404.5Z" transform="translate(-168.636 -367.501)" fill="#232527" fill-rule="evenodd"/>
      <path id="Path_29" data-name="Path 29" d="M55.278,161.718l1.637,0V151H37.608l.009,41.661h19.3v-4.154H53.2c-2.251,0-4.486,0-6.737,0-.364,0-.806.1-.8-.518,0-.591.371-.624.8-.624H56.915v-3.211H55.048l-10.4,0c-.191,0-.375.007-.566-.008-.342-.026-.606-.152-.606-.555,0-.428.253-.582.651-.58,1.1,0,2.2,0,3.3,0h9.48v-1.075H46.6a2.567,2.567,0,0,1-.626-.026.529.529,0,0,1-.406-.525.51.51,0,0,1,.4-.53,4.684,4.684,0,0,1,1.014-.034c3.323.007,6.666.008,9.938,0v-4.08H55.739l-.207,0a.608.608,0,0,1-.478.152c-.834,0-.834-1.466,0-1.466a.627.627,0,0,1,.531.22c.44,0,.9,0,1.329,0v-1.065c-1.005,0-4.706.034-5.369-.131a10.271,10.271,0,0,1-3.858-1.44,8.3,8.3,0,0,1-1.709-1.4c-.32-.4-.649-.788-.962-1.192a.748.748,0,0,1,.157-1.479.737.737,0,0,1,.4.118.644.644,0,0,1,.191.174.742.742,0,0,1,.159.457.716.716,0,0,1-.01.12,9.789,9.789,0,0,0,1.4,1.535,16.854,16.854,0,0,0,1.865,1.155,11.221,11.221,0,0,0,1.831.7,31.614,31.614,0,0,0,5.907.284v-5.429c-1.262,0-2.715,0-4.088-.027a3.153,3.153,0,0,1-2.874-4.206.732.732,0,0,1-.052-.271.748.748,0,0,1,1.5,0,.736.736,0,0,1-.1.375.658.658,0,0,1-.251.283,2.106,2.106,0,0,0,.641,2.314,1.232,1.232,0,0,0,.931.355c.765-.014,1.5.02,2.263.024.69,0,1.31,0,2.037,0v-4.092H55.286c-.38,0-.7-.144-.694-.56S54.891,161.717,55.278,161.718ZM39.785,186.711l.277.062.219-.186.086.28.265.1-.19.217.046.291-.277-.062-.218.187-.086-.28-.265-.1.19-.219Zm.842,2.391-.421-.091-.333.273-.149-.41-.3-.108v-.172l.191-.191-.061-.425.425.091.335-.272.133.409.4.152-.289.319Zm.349-1.334-.2-.077.145-.159-.035-.213.211.045.168-.137.066.206.2.076-.145.16.035.213-.211-.046-.167.137Zm14.205,1.821a.762.762,0,0,1,.471-.18.733.733,0,1,1,0,1.466.768.768,0,0,1-.478-.187c-.746,0-1.486.007-2.232.008q-2.115,0-4.228,0-3.334,0-6.667,0a3.027,3.027,0,0,1-.641-.043c-.277-.062-.36-.282-.347-.549s.1-.468.406-.491c.142-.011.28-.018.423-.018Q48.539,189.588,55.182,189.588Zm-8.171-15.8a15.089,15.089,0,0,0,2.281,1.2c.712.29,1.151.5,1.192.52a.421.421,0,0,1,.2.644.53.53,0,0,1-.68.254,13.512,13.512,0,0,1-3.129-1.348,18.279,18.279,0,0,1-2.8-2.343,11.784,11.784,0,0,1-1.622-2.26,16.668,16.668,0,0,1-1.3-3.9.747.747,0,1,1,1.179-.608.734.734,0,0,1-.088.348,12.292,12.292,0,0,0,1.382,4A14.875,14.875,0,0,0,47.01,173.79Zm6.351-17.922a.4.4,0,0,1-.2.345.634.634,0,0,1-.159.118.732.732,0,0,1-.78-.027,8.342,8.342,0,0,0-5.27,2.388,8.237,8.237,0,0,0-2.542,5.5,4.941,4.941,0,0,0-.008.574c.023.441-.157.8-.6.815-.507.022-.589-.384-.554-.81.01-.119,0-.239,0-.358a9.7,9.7,0,0,1,7.285-8.949,11.979,11.979,0,0,1,1.595-.336.745.745,0,0,1,.5-.2.727.727,0,0,1,.213.032.65.65,0,0,1,.447.367.729.729,0,0,1,.065.534Zm.173-1.972a.664.664,0,0,1-.611.345.7.7,0,0,1-.412-.122,10.419,10.419,0,0,0-2.664.438,11.357,11.357,0,0,0-4.6,2.78,10.508,10.508,0,0,0-2.381,3.811c-.171.428-.466.635-.89.465s-.311-.514-.182-.851a11.64,11.64,0,0,1,7.233-7.121,8.851,8.851,0,0,1,3.305-.63.746.746,0,0,1,1.328.469A.74.74,0,0,1,53.534,153.9Z" transform="translate(-37.608 -151)" fill="#2b8be9"/>
      <path id="Path_30" data-name="Path 30" d="M183.553,164.713c-2.2,0-4.4-.01-6.6.006-.457,0-1.146-.219-1.13.582s.718.526,1.161.538c1.171.033,2.343.011,3.515.012l9.687,0c.1,0,.192-.007.287,0,.432.038.731-.143.724-.582s-.348-.563-.754-.562Q187,164.72,183.553,164.713Z" transform="translate(-156 -162.73)" fill="#232527"/>
      <path id="Path_31" data-name="Path 31" d="M275.029,164.553a.755.755,0,1,1-.755-.755A.755.755,0,0,1,275.029,164.553Z" transform="translate(-239.688 -161.963)" fill="#232527" fill-rule="evenodd"/>
      <circle id="Ellipse_2" data-name="Ellipse 2" cx="0.754" cy="0.754" r="0.754" transform="translate(31.311 10.569)" fill="#232527"/>
    </g>
    <g id="Group_4" data-name="Group 4" transform="translate(124.629 83.575)">
      <path id="Path_32" data-name="Path 32" d="M647.6,334.536c-.05.1-.1.2-.146.3s-.1.207-.145.3q-.075-.106-.183-.231a1.587,1.587,0,0,0-.249-.231,1.519,1.519,0,0,0-.312-.178.941.941,0,0,0-.369-.073.793.793,0,0,0-.465.139,1.107,1.107,0,0,0-.328.363,1.876,1.876,0,0,0-.195.522,2.85,2.85,0,0,0-.067.627,1.977,1.977,0,0,0,.079.6,1.35,1.35,0,0,0,.212.416,1.3,1.3,0,0,0,.311.29,4.275,4.275,0,0,0,.378.224q.265.146.589.35a2.728,2.728,0,0,1,.6.528,2.784,2.784,0,0,1,.465.8,3.231,3.231,0,0,1,.187,1.176,3.879,3.879,0,0,1-.137,1.071,2.7,2.7,0,0,1-.374.813,1.708,1.708,0,0,1-.552.515,1.374,1.374,0,0,1-1.279.04,2.432,2.432,0,0,1-.519-.343,2.7,2.7,0,0,1-.415-.45,2.563,2.563,0,0,1-.279-.469l.332-.528a4.534,4.534,0,0,0,.262.4,2.858,2.858,0,0,0,.324.37,1.581,1.581,0,0,0,.39.277,1.039,1.039,0,0,0,.938-.013,1.227,1.227,0,0,0,.4-.344,1.808,1.808,0,0,0,.282-.562,2.487,2.487,0,0,0,.108-.759,2.215,2.215,0,0,0-.166-.918,1.935,1.935,0,0,0-.407-.595,2.141,2.141,0,0,0-.515-.37q-.274-.139-.5-.27c-.1-.062-.22-.141-.361-.238a1.791,1.791,0,0,1-.4-.4,2.347,2.347,0,0,1-.328-.634,2.977,2.977,0,0,1-.145-.951,4.474,4.474,0,0,1,.071-.879,2.671,2.671,0,0,1,.265-.793,1.71,1.71,0,0,1,.49-.575,1.215,1.215,0,0,1,.743-.224,1.432,1.432,0,0,1,.664.178A2.417,2.417,0,0,1,647.6,334.536Z" transform="translate(-644.414 -333.267)" fill="#232527" stroke="#231f20" stroke-width="1"/>
      <path id="Path_33" data-name="Path 33" d="M747.641,338.014a7.089,7.089,0,0,1,.232-1.843,5.52,5.52,0,0,1,.635-1.507,3.454,3.454,0,0,1,.942-1.017,1.976,1.976,0,0,1,1.154-.377,2,2,0,0,1,1.158.377,3.442,3.442,0,0,1,.946,1.017,5.59,5.59,0,0,1,.639,1.507,6.961,6.961,0,0,1,.237,1.843,6.889,6.889,0,0,1-.237,1.836,5.589,5.589,0,0,1-.639,1.5,3.362,3.362,0,0,1-.946,1.011,2.022,2.022,0,0,1-1.158.37,2,2,0,0,1-1.154-.37,3.371,3.371,0,0,1-.942-1.011,5.514,5.514,0,0,1-.635-1.5A7.017,7.017,0,0,1,747.641,338.014Zm.515,0a5.915,5.915,0,0,0,.191,1.532,4.623,4.623,0,0,0,.523,1.249,2.8,2.8,0,0,0,.78.846,1.624,1.624,0,0,0,1.909,0,2.849,2.849,0,0,0,.785-.846,4.644,4.644,0,0,0,.531-1.249,6.1,6.1,0,0,0,0-3.059,4.739,4.739,0,0,0-.531-1.262,2.854,2.854,0,0,0-.781-.852,1.632,1.632,0,0,0-.951-.31,1.65,1.65,0,0,0-.955.31,2.791,2.791,0,0,0-.781.852,4.808,4.808,0,0,0-.527,1.262A5.818,5.818,0,0,0,748.155,338.014Z" transform="translate(-732.837 -332.953)" fill="#232527" stroke="#231f20" stroke-width="1"/>
      <path id="Path_34" data-name="Path 34" d="M867.77,343.254v-9.249h3.512v.793h-3v3.409h2.673v.779h-2.673v4.268Z" transform="translate(-835.739 -333.583)" fill="#232527" stroke="#231f20" stroke-width="1"/>
      <path id="Path_35" data-name="Path 35" d="M972.519,334.005v.793h-2.034v8.456h-.515V334.8h-2.042v-.793Z" transform="translate(-921.534 -333.583)" fill="#232527" stroke="#231f20" stroke-width="1"/>
      <path id="Path_36" data-name="Path 36" d="M1081.428,334h.523q-.648,2.432-1.287,4.836t-1.287,4.836l-1.469-5.51c-.011-.07-.025-.139-.042-.2s-.031-.134-.042-.206q-.141.741-.328,1.487t-.395,1.493q-.207.748-.419,1.487t-.4,1.453q-.647-2.43-1.287-4.836T1073.706,334h.523q.5,1.877.984,3.72t.992,3.72q.017.106.038.205c.014.066.026.134.037.2q.116-.634.274-1.255t.328-1.249q.17-.628.349-1.242t.336-1.221q-.191-.727-.382-1.441T1076.8,334h.515q.5,1.877.988,3.72t1,3.72q.017.106.038.205c.014.066.026.134.037.2.011-.07.024-.139.038-.2s.026-.135.037-.205q.5-1.876.988-3.72T1081.428,334Z" transform="translate(-1012.142 -333.582)" fill="#232527" stroke="#231f20" stroke-width="1"/>
      <path id="Path_37" data-name="Path 37" d="M1214.033,340.731h-.523q-.257-.951-.506-1.909t-.506-1.909h-2.084q-.249.952-.5,1.909t-.511,1.909h-.515q.648-2.431,1.287-4.836t1.287-4.836l1.287,4.836Q1213.383,338.3,1214.033,340.731Zm-2.5-7.439c-.011-.07-.024-.139-.038-.2s-.026-.135-.037-.206q-.166.833-.39,1.639t-.44,1.612h1.652q-.192-.713-.374-1.42T1211.533,333.292Z" transform="translate(-1127.936 -331.059)" fill="#232527" stroke="#231f20" stroke-width="1"/>
      <path id="Path_38" data-name="Path 38" d="M1322.65,343.254v-9.249h1.3a1.527,1.527,0,0,1,.6.139,1.886,1.886,0,0,1,.61.436,2.412,2.412,0,0,1,.477.76,2.949,2.949,0,0,1,.191,1.123,3.7,3.7,0,0,1-.316,1.625,1.6,1.6,0,0,1-.913.859q.316,1.07.635,2.147t.643,2.16h-.565q-.316-1.071-.631-2.127t-.631-2.127a.405.405,0,0,1-.1.014h-.784v4.241h-.515Zm.513-5.034h.789a1.19,1.19,0,0,0,1.084-.588,1.793,1.793,0,0,0,.216-.568,3.054,3.054,0,0,0,.062-.6,1.954,1.954,0,0,0-.1-.635,1.84,1.84,0,0,0-.282-.535,1.4,1.4,0,0,0-.427-.37,1.09,1.09,0,0,0-.54-.138h-.8Z" transform="translate(-1225.386 -333.583)" fill="#232527" stroke="#231f20" stroke-width="1"/>
      <path id="Path_39" data-name="Path 39" d="M1423.56,343.254v-9.249h3.512v.793h-3v3.409h2.674v.779h-2.674v3.489h3.114v.78Z" transform="translate(-1311.825 -333.583)" fill="#232527" stroke="#231f20" stroke-width="1"/>
    </g>
  </g>
</svg>
