<svg xmlns="http://www.w3.org/2000/svg" width="21.2" height="19.015" viewBox="0 0 21.2 19.015">
  <g id="Group_15" data-name="Group 15" transform="translate(950.773 914.152)">
    <path id="Path_34" data-name="Path 34" d="M-929.673-896.444a1.409,1.409,0,0,1-.779,1.042,1.9,1.9,0,0,1-.69.151c-.772.018-1.544.013-2.317.005a1.4,1.4,0,0,1-1.464-1.474q-.005-1.138,0-2.276a1.415,1.415,0,0,1,1.487-1.5c.224,0,.448,0,.66,0,.018-.032.029-.044.029-.055,0-.957.02-1.914,0-2.87a1.6,1.6,0,0,0-1.5-1.431c-.1-.008-.2-.013-.307-.013h-5.163v4.388c.3,0,.6-.024.893,0a1.35,1.35,0,0,1,1.266,1.344q.032,1.26,0,2.521a1.354,1.354,0,0,1-1.347,1.352q-1.27.034-2.542,0a1.357,1.357,0,0,1-1.348-1.372q-.027-1.24,0-2.481a1.4,1.4,0,0,1,1.471-1.387c.225,0,.45,0,.691,0v-4.357c-.055,0-.108-.012-.16-.012q-2.522,0-5.044,0a1.736,1.736,0,0,0-1.562.81,1.173,1.173,0,0,0-.193.571c-.019.983-.009,1.967-.009,2.987h.646a1.532,1.532,0,0,1,.947.273,1.379,1.379,0,0,1,.581,1.144c.008.806.011,1.613,0,2.419a1.373,1.373,0,0,1-1.38,1.407c-.827.02-1.654.017-2.481,0a1.366,1.366,0,0,1-1.347-1.079c-.011-.039-.026-.077-.04-.115v-2.83a1.39,1.39,0,0,1,.766-1.048,2.75,2.75,0,0,1,.749-.166,5.44,5.44,0,0,1,.659-.005c0-.082.01-.153.01-.225,0-.848.012-1.7,0-2.543a2.5,2.5,0,0,1,2.21-2.449,4.571,4.571,0,0,1,.573-.032q2.409,0,4.819,0h.26v-2.625c-.39,0-.771,0-1.152,0a1.337,1.337,0,0,1-1.3-.8,1.813,1.813,0,0,1-.149-.712c-.017-.888-.01-1.777-.006-2.666a1.412,1.412,0,0,1,1.516-1.508q1.548,0,3.1,0a1.41,1.41,0,0,1,1.516,1.508q.007,1.333,0,2.666a1.413,1.413,0,0,1-1.517,1.507c-.361,0-.721,0-1.094,0v2.625h.243q2.471,0,4.942,0a2.651,2.651,0,0,1,2.306,1.183,2.176,2.176,0,0,1,.372,1.278q0,1.271,0,2.543v.265c.319,0,.619-.022.914,0a1.356,1.356,0,0,1,1.22,1.022l.05.173Zm-10.508-12.8c.526,0,1.052,0,1.578,0a.542.542,0,0,0,.613-.6q0-1.373,0-2.746a.538.538,0,0,0-.6-.593q-1.588,0-3.176,0a.538.538,0,0,0-.593.6q0,1.373,0,2.746a.539.539,0,0,0,.6.593C-941.233-909.24-940.707-909.241-940.181-909.241Zm-7.863,13.125c.382,0,.765,0,1.147,0a.542.542,0,0,0,.6-.575q.009-1.178,0-2.356a.527.527,0,0,0-.566-.564q-1.178-.007-2.356,0a.53.53,0,0,0-.579.572q-.008,1.178,0,2.356a.538.538,0,0,0,.586.567C-948.823-896.114-948.433-896.116-948.044-896.116Zm7.875,0c.382,0,.765,0,1.147,0a.546.546,0,0,0,.6-.595q.006-1.158,0-2.315a.535.535,0,0,0-.587-.585q-1.168-.005-2.336,0a.53.53,0,0,0-.58.571q-.009,1.178,0,2.356a.538.538,0,0,0,.586.568C-940.948-896.114-940.559-896.116-940.169-896.116Zm7.882-3.5c-.389,0-.779,0-1.168,0a.54.54,0,0,0-.594.6q-.005,1.147,0,2.295a.549.549,0,0,0,.615.6q1.137,0,2.274,0a.549.549,0,0,0,.615-.6q.006-1.147,0-2.295a.54.54,0,0,0-.594-.6C-931.523-899.616-931.905-899.613-932.288-899.613Z" transform="translate(0 0)" fill="#222" stroke="#222" stroke-width="0.2" fill-rule="evenodd"/>
  </g>
</svg>
