<svg xmlns="http://www.w3.org/2000/svg" width="30.618" height="14.602" viewBox="0 0 30.618 14.602">
  <g id="Group_527" data-name="Group 527" transform="translate(-285.279 -230.405)" opacity="0.5">
    <path id="Path_225" data-name="Path 225" d="M375.464,236.883c-.429-.508-.791-.938-1.154-1.365L371.321,232c-.079-.092-.16-.183-.229-.282a.828.828,0,0,1,.139-1.128.815.815,0,0,1,1.1.056c.164.159.3.342.454.516l5.064,5.944a.84.84,0,0,1-.009,1.2l-5.274,6.191c-.061.072-.119.147-.185.215a.828.828,0,0,1-1.163.091.819.819,0,0,1-.093-1.161c.4-.495.815-.971,1.225-1.454l2.858-3.359c.06-.071.114-.148.234-.3H356.228a3.923,3.923,0,0,1-.525-.016.817.817,0,0,1,.018-1.618,4.434,4.434,0,0,1,.525-.014h19.217Z" transform="translate(-62.205)" fill-rule="evenodd"/>
    <path id="Path_226" data-name="Path 226" d="M320.936,290.473a.818.818,0,1,1,.027,1.636.818.818,0,1,1-.027-1.636Z" transform="translate(-31.085 -53.585)" fill-rule="evenodd"/>
    <path id="Path_227" data-name="Path 227" d="M286.118,290.475a.818.818,0,1,1-.031,1.636.818.818,0,1,1,.031-1.636Z" transform="translate(0 -53.586)" fill-rule="evenodd"/>
  </g>
</svg>
