<svg xmlns="http://www.w3.org/2000/svg" width="23.759" height="20.85" viewBox="0 0 23.759 20.85">
  <g id="Group_14" data-name="Group 14" transform="translate(-449.6 689.3)">
    <path id="Path_30" data-name="Path 30" d="M449.75-662.334c.089-.337.154-.683.273-1.009a3.916,3.916,0,0,1,1.44-1.849.9.9,0,0,0,.267-.323,9.625,9.625,0,0,1,7.025-5.46,12.5,12.5,0,0,1,1.682-.164c.373-.025.491.106.491.484q0,4.42,0,8.839a.534.534,0,0,0,.172.418q3.115,3.1,6.221,6.215c.315.315.315.473-.008.776a9.541,9.541,0,0,1-7.5,2.681,16.419,16.419,0,0,1-2.172-.417c-.141-.03-.239-.054-.36.071a1.2,1.2,0,0,1-.882.376c-1.771,0-3.542.01-5.312,0a1.35,1.35,0,0,1-1.263-.962c-.021-.064-.047-.126-.07-.189v-.458l.382-.817-.382-.832v-.458l.387-.791-.387-.812v-.458c.016-.042.035-.084.047-.127a1.408,1.408,0,0,1,1.25-1.047c.1-.011.206-.013.307-.019,0-.024,0-.035,0-.038l-.191-.164a3.962,3.962,0,0,1-1.3-2.1c-.044-.176-.076-.356-.113-.534Zm6.342,3.651a1.451,1.451,0,0,1,1.2,2.47,1.462,1.462,0,0,1,0,2.094,1.385,1.385,0,0,1,.425,1.022c-.01.183.059.247.222.293a8.931,8.931,0,0,0,7.41-1c.462-.285.881-.639,1.363-.993-.117-.094-.188-.141-.247-.2q-3.007-3-6.014-6.005a.805.805,0,0,1-.263-.623c.008-2.833.005-5.666.005-8.5v-.264c-2.625-.177-6.728,2.359-7.47,4.6,2.114-.305,3.684.392,4.541,2.016a3.882,3.882,0,0,1,.436,2.3A4.007,4.007,0,0,1,456.092-658.684Zm-2.355.023a3.248,3.248,0,0,0,3.257-3.234,3.257,3.257,0,0,0-3.239-3.279,3.264,3.264,0,0,0-3.272,3.25A3.254,3.254,0,0,0,453.737-658.661Zm.017.734c-.854,0-1.709,0-2.563,0a.678.678,0,0,0-.707.661.685.685,0,0,0,.68.689c.068,0,.137,0,.206,0h3.684c.412,0,.824.007,1.236,0a.671.671,0,0,0,.7-.708.675.675,0,0,0-.722-.643C455.432-657.931,454.593-657.927,453.754-657.927Zm-.029,3.428q1.27,0,2.54,0a.671.671,0,0,0,.729-.678.665.665,0,0,0-.721-.661q-2.528,0-5.057,0a.674.674,0,0,0-.732.675.68.68,0,0,0,.747.664Q452.478-654.5,453.725-654.5Zm.011,2.077c.847,0,1.693,0,2.54,0a.665.665,0,0,0,.718-.664.675.675,0,0,0-.731-.678c-.427,0-.854,0-1.281,0q-1.876,0-3.753,0a.683.683,0,0,0-.673.384.664.664,0,0,0,.641.959C452.043-652.417,452.889-652.423,453.736-652.423Z" transform="translate(0 -16.908)" fill="#222" stroke="#222" stroke-width="0.3" fill-rule="evenodd"/>
    <path id="Path_31" data-name="Path 31" d="M678.641-507.833c-.06.414-.1.831-.184,1.241a9.589,9.589,0,0,1-2.621,4.963.372.372,0,0,1-.613,0q-3.257-3.253-6.512-6.507a.4.4,0,0,1-.133-.471.4.4,0,0,1,.415-.223q4.592,0,9.183,0a.476.476,0,0,1,.464.268Zm-8.776-.258,5.694,5.694a8.933,8.933,0,0,0,2.341-5.694Z" transform="translate(-205.432 -169.302)" fill="#222" stroke="#222" stroke-width="0.3" fill-rule="evenodd"/>
    <path id="Path_32" data-name="Path 32" d="M652.985-679.059h-4.512c-.43,0-.535-.106-.535-.545q0-4.512,0-9.023c0-.423.111-.531.529-.522a9.671,9.671,0,0,1,9.265,7.343,16.753,16.753,0,0,1,.3,2.261c.038.351-.116.486-.47.486Zm-4.3-.75h8.6a8.924,8.924,0,0,0-8.6-8.567Z" transform="translate(-186.083 0)" fill="#222" stroke="#222" stroke-width="0.3" fill-rule="evenodd"/>
    <path id="Path_33" data-name="Path 33" d="M495.022-560.168a1.166,1.166,0,0,1,.878.753.374.374,0,0,1-.19.516c-.2.083-.382-.005-.49-.244a.631.631,0,0,0-.894-.228.307.307,0,0,0,.036.53,3.1,3.1,0,0,0,.515.179c.116.037.236.062.351.1a1.02,1.02,0,0,1,.755.929,1.072,1.072,0,0,1-.7,1.03c-.083.034-.169.063-.264.1,0,.1.006.2,0,.3a.365.365,0,0,1-.353.353.34.34,0,0,1-.364-.334c.029-.3-.135-.412-.352-.568a2.43,2.43,0,0,1-.565-.668.346.346,0,0,1,.152-.5.375.375,0,0,1,.5.189c.237.412.484.558.833.493.193-.036.362-.113.374-.336s-.166-.267-.331-.315c-.241-.07-.49-.12-.722-.212a1.027,1.027,0,0,1-.728-.982,1.027,1.027,0,0,1,.7-1.024.293.293,0,0,0,.123-.175,1.5,1.5,0,0,0,.01-.227.357.357,0,0,1,.377-.324.353.353,0,0,1,.348.352C495.027-560.386,495.022-560.287,495.022-560.168Z" transform="translate(-40.918 -120.476)" fill="#222" stroke="#222" stroke-width="0.3" fill-rule="evenodd"/>
  </g>
</svg>
