<?xml version="1.0" encoding="utf-8"?>
<!-- Generator: Adobe Illustrator 16.0.0, SVG Export Plug-In . SVG Version: 6.00 Build 0)  -->
<!DOCTYPE svg PUBLIC "-//W3C//DTD SVG 1.1//EN" "http://www.w3.org/Graphics/SVG/1.1/DTD/svg11.dtd">
<svg version="1.1" id="Layer_1" xmlns="http://www.w3.org/2000/svg" xmlns:xlink="http://www.w3.org/1999/xlink" x="0px" y="0px"
	 width="17.188px" height="16.421px" viewBox="0 0 17.188 16.421" enable-background="new 0 0 17.188 16.421" xml:space="preserve">
<g>
	<path fill="#a90000" d="M10.008,8.21l6.293-6.292c0.391-0.391,0.391-1.024,0-1.415s-1.024-0.391-1.415,0l0,0L8.594,6.796
		L2.301,0.503c-0.391-0.391-1.024-0.391-1.415,0s-0.391,1.024,0,1.415L7.179,8.21l-6.293,6.293c-0.391,0.391-0.391,1.023,0,1.414
		s1.024,0.391,1.415,0l6.292-6.293l6.292,6.293c0.391,0.391,1.024,0.391,1.415,0s0.391-1.023,0-1.414L10.008,8.21z"/>
</g>
</svg>
