<svg xmlns="http://www.w3.org/2000/svg" width="7.914" height="14" viewBox="0 0 7.914 14">
  <path id="Path_302" data-name="Path 302" d="M18.415,0a.874.874,0,0,1,.875.875V1.85c.044.005.085.011.128.019l.03.005,1.312.241a.874.874,0,1,1-.314,1.719l-1.3-.238a4.281,4.281,0,0,0-2.14.169c-.53.21-.743.5-.793.768a.893.893,0,0,0,.033.558.932.932,0,0,0,.35.361,7.445,7.445,0,0,0,2.014.719l.079.022a8.652,8.652,0,0,1,2.449.924,2.658,2.658,0,0,1,.981,1.08A2.608,2.608,0,0,1,22.3,9.815a2.8,2.8,0,0,1-1.793,2.1,4.566,4.566,0,0,1-1.214.3v.913a.875.875,0,0,1-1.749,0v-.954c-.011,0-.025,0-.036-.005H17.5a11.55,11.55,0,0,1-2.5-.719.874.874,0,0,1,.711-1.6,9.837,9.837,0,0,0,2.055.59,4.082,4.082,0,0,0,2.077-.145,1.054,1.054,0,0,0,.733-.79.911.911,0,0,0-.036-.558.941.941,0,0,0-.355-.364,7.518,7.518,0,0,0-2.023-.719l-.077-.019h0a8.857,8.857,0,0,1-2.446-.932,2.66,2.66,0,0,1-.979-1.082,2.608,2.608,0,0,1-.167-1.618A2.841,2.841,0,0,1,16.359,2.14a5.054,5.054,0,0,1,1.181-.3V.875A.874.874,0,0,1,18.415,0Z" transform="translate(-14.436)" fill="#efb408"/>
</svg>
