<?xml version="1.0" encoding="utf-8"?>
<!-- Generator: Adobe Illustrator 16.0.0, SVG Export Plug-In . SVG Version: 6.00 Build 0)  -->
<!DOCTYPE svg PUBLIC "-//W3C//DTD SVG 1.1//EN" "http://www.w3.org/Graphics/SVG/1.1/DTD/svg11.dtd">
<svg version="1.1" id="Layer_1" xmlns="http://www.w3.org/2000/svg" xmlns:xlink="http://www.w3.org/1999/xlink" x="0px" y="0px"
	 width="24px" height="24px" viewBox="0 0 24 24" enable-background="new 0 0 24 24" xml:space="preserve">
<g>
	<path fill-rule="evenodd" clip-rule="evenodd" fill="#014653" d="M10.985,18.291c0-1.636-0.015-3.177,0.01-4.718
		c0.006-0.395-0.162-0.537-0.5-0.632c-0.592-0.166-1.179-0.354-1.762-0.553c-3.509-1.198-3.22-5.722-0.946-7.301
		c0.793-0.551,1.628-1.015,2.59-1.139c0.527-0.067,0.635-0.3,0.616-0.77c-0.029-0.7-0.018-1.404,0.007-2.105
		c0.021-0.601,0.29-1.042,0.948-1.072c0.708-0.032,1.02,0.434,1.064,1.053c0.054,0.727,0.045,1.461,0.015,2.189
		c-0.019,0.464,0.083,0.667,0.603,0.762c1.902,0.346,3.366,1.346,4.239,3.114c0.224,0.453,0.398,0.923,0.417,1.443
		c0.021,0.555-0.124,1.02-0.663,1.242c-0.529,0.219-0.982,0.016-1.381-0.358c-0.297-0.279-0.433-0.647-0.589-1.008
		c-0.413-0.947-1.08-1.62-2.084-1.942c-0.402-0.129-0.55-0.045-0.54,0.404c0.023,1.207,0.026,2.416-0.003,3.623
		c-0.01,0.434,0.166,0.593,0.558,0.666c0.44,0.082,0.874,0.203,1.303,0.33c1.865,0.552,3.222,2.159,3.381,3.993
		c0.175,2.007-0.777,3.618-2.679,4.526c-0.584,0.278-1.19,0.528-1.832,0.59c-0.625,0.063-0.793,0.35-0.73,0.93
		c0.048,0.444,0.036,0.901-0.007,1.348c-0.06,0.608-0.31,1.106-1.028,1.094c-0.708-0.012-1.067-0.499-0.975-1.111
		c0.231-1.541-0.267-2.293-1.882-2.666c-1.447-0.333-2.465-1.505-3.109-2.894c-0.094-0.202-0.182-0.412-0.232-0.629
		c-0.222-0.967,0.026-1.66,0.653-1.871c0.645-0.218,1.307,0.109,1.704,1.018C8.691,17.086,9.522,17.926,10.985,18.291z
		 M13.036,16.004c0,0.67,0.019,1.341-0.008,2.011c-0.016,0.409,0.15,0.464,0.499,0.391c1.202-0.255,2.096-1.215,2.104-2.282
		c0.008-1.128-0.883-2.098-2.116-2.354c-0.379-0.079-0.5,0.004-0.485,0.391C13.053,14.774,13.036,15.39,13.036,16.004z
		 M10.984,8.411c0-0.56-0.008-1.119,0.003-1.678c0.006-0.301-0.055-0.475-0.418-0.431C9.851,6.388,8.803,7.384,8.671,8.137
		C8.539,8.9,8.934,9.621,9.802,9.99c1.202,0.512,1.218,0.679,1.184-0.741C10.979,8.969,10.985,8.69,10.984,8.411z"/>
</g>
</svg>
