<svg xmlns="http://www.w3.org/2000/svg" width="14" height="14" viewBox="0 0 14 14">
  <path id="down-to-line" d="M13.417,14H.583a.583.583,0,0,1,0-1.167H13.417a.583.583,0,0,1,0,1.167Zm-4.8-3,3.7-3.938a1.7,1.7,0,0,0,.379-1.89A1.726,1.726,0,0,0,11.1,4.1H9.887L9.87,2.316A2.318,2.318,0,0,0,7.554,0H6.4A2.319,2.319,0,0,0,4.083,2.322V4.083h-1.2a1.709,1.709,0,0,0-1.6,1.079,1.7,1.7,0,0,0,.368,1.878l3.692,3.967a2.324,2.324,0,0,0,3.278,0ZM4.667,5.25a.6.6,0,0,0,.414-.169.577.577,0,0,0,.169-.414V2.316A1.148,1.148,0,0,1,6.4,1.167H7.554A1.153,1.153,0,0,1,8.7,2.322l.018,2.363a.58.58,0,0,0,.583.577h1.779a.55.55,0,0,1,.525.356.562.562,0,0,1-.14.636L7.776,10.179a1.144,1.144,0,0,1-1.6.006L2.479,6.218a.576.576,0,0,1,.4-.98H4.667Z" fill="#004552"/>
</svg>
