<?xml version="1.0" encoding="utf-8"?>
<!-- Generator: Adobe Illustrator 16.0.0, SVG Export Plug-In . SVG Version: 6.00 Build 0)  -->
<!DOCTYPE svg PUBLIC "-//W3C//DTD SVG 1.1//EN" "http://www.w3.org/Graphics/SVG/1.1/DTD/svg11.dtd">
<svg version="1.1" id="Layer_1" xmlns="http://www.w3.org/2000/svg" xmlns:xlink="http://www.w3.org/1999/xlink" x="0px" y="0px"
	 width="356px" height="330px" viewBox="0 0 356 330" enable-background="new 0 0 356 330" xml:space="preserve">
<g>
	<path fill-rule="evenodd" clip-rule="evenodd" d="M244.862,41.416c17.684,17.617,35.406,35.2,53.034,52.875
		c5.788,5.805,6.281,11.908,1.687,16.476c-4.546,4.511-10.692,3.958-16.447-1.771c-10.111-10.063-20.1-20.252-30.141-30.389
		c-0.623,0.208-1.244,0.416-1.866,0.623c0,2.635,0,5.27,0,7.905c0,60.249,0.005,120.499-0.006,180.75
		c-0.002,11.295-3.308,16.165-10.753,15.962c-7.093-0.195-10.11-4.901-10.112-15.898c-0.008-60.02-0.006-120.036-0.006-180.055
		c0-2.762,0-5.521,0-9.912c-2.532,2.106-4.068,3.199-5.392,4.513c-8.884,8.81-17.675,17.716-26.593,26.493
		c-5.807,5.714-11.901,6.29-16.456,1.792c-4.63-4.575-4.113-10.646,1.671-16.443c17.64-17.679,35.352-35.284,53.037-52.92
		C239.303,41.416,242.081,41.416,244.862,41.416z"/>
	<path fill-rule="evenodd" clip-rule="evenodd" d="M119.871,97.958c0,17.862-0.247,34.077,0.311,50.263
		c0.07,2.03,4.073,4.76,6.769,5.73c19.46,7.016,33.265,19.273,36.878,40.356c4.564,26.629-11.85,53.53-37.386,62.414
		c-1.983,0.691-3.993,1.307-6.235,2.037c-1.444,9.604,3.287,22.899-12.642,24.501c-8.046,0.811-10.791-4.782-12.374-22.667
		c-7.127-1.966-14.553-3.488-21.563-6.119c-5.35-2.007-10.404-5.076-15.166-8.297c-5.768-3.9-7.039-10.347-3.863-15.923
		c3.301-5.799,9.848-7.653,16.412-4.437c4.005,1.964,7.703,4.628,11.821,6.27c3.741,1.493,7.865,2.027,12.833,3.231
		c0-22.313,0.092-43.313-0.175-64.308c-0.023-1.74-2.168-3.938-3.89-5.068c-3.495-2.293-7.425-3.914-11.089-5.965
		c-16.959-9.498-24.726-24.049-22.381-43.279c2.316-19.002,12.478-32.536,30.512-39.731c2.185-0.872,4.431-1.594,7.109-2.55
		c0-3.733-0.191-7.409,0.039-11.058c0.432-6.802,5.13-11.609,11.342-11.926c6.378-0.325,12.857,4.708,12.364,11.576
		c-0.642,8.882,2.941,11.951,11.013,14.094c6.362,1.687,12.37,5.757,17.751,9.81c5.875,4.426,6.307,11.591,1.833,16.716
		c-4.634,5.307-10.145,5.988-16.242,2.295C129.68,103.398,125.381,101.087,119.871,97.958z M120.142,232.712
		c14.228-6.753,21.774-20.047,19.853-33.651c-1.514-10.708-8.902-18.411-19.853-20.509
		C120.142,196.37,120.142,214.146,120.142,232.712z M94.988,139.843c0-13.483,0-26.028,0-39.406
		c-9.623,5.825-13.364,13.623-13.008,23.576C82.272,132.191,87.379,136.56,94.988,139.843z"/>
</g>
</svg>
