<?xml version="1.0" encoding="utf-8"?>
<!-- Generator: Adobe Illustrator 16.0.0, SVG Export Plug-In . SVG Version: 6.00 Build 0)  -->
<!DOCTYPE svg PUBLIC "-//W3C//DTD SVG 1.1//EN" "http://www.w3.org/Graphics/SVG/1.1/DTD/svg11.dtd">
<svg version="1.1" id="Layer_1" xmlns="http://www.w3.org/2000/svg" xmlns:xlink="http://www.w3.org/1999/xlink" x="0px" y="0px"
	 width="24px" height="24px" viewBox="0 0 24 24" enable-background="new 0 0 24 24" xml:space="preserve">
<g>
	<path fill-rule="evenodd" clip-rule="evenodd" fill="#014653" d="M13.22,9.596c-0.632-0.376-1.227-0.717-1.807-1.079
		c-0.479-0.3-0.683-0.755-0.606-1.311c0.072-0.529,0.38-0.895,0.887-1.07c0.385-0.132,0.757-0.092,1.11,0.122
		c0.801,0.485,1.604,0.965,2.351,1.415c1.025-0.732,2.011-1.448,3.01-2.143c0.367-0.255,0.763-0.468,1.155-0.686
		c0.68-0.376,1.473-0.16,1.841,0.49c0.368,0.654,0.136,1.418-0.528,1.837c-0.862,0.545-1.71,1.11-2.562,1.671
		c-0.138,0.09-0.257,0.202-0.415,0.327c0.578,0.348,1.124,0.666,1.661,0.999c0.521,0.325,0.767,0.871,0.655,1.409
		c-0.196,0.933-1.172,1.364-2.02,0.883c-0.397-0.226-0.787-0.469-1.18-0.703c-0.395-0.234-0.787-0.469-1.179-0.703
		c-0.603,0.524-1.188,1.056-1.797,1.561c-1.435,1.187-3.018,2.163-4.662,3.017c-2.373,1.232-4.792,2.379-7.195,3.552
		c-0.627,0.306-1.284,0.138-1.675-0.389c-0.375-0.504-0.355-1.208,0.078-1.667c0.152-0.163,0.355-0.288,0.557-0.39
		c2.286-1.131,4.594-2.217,6.856-3.392c1.766-0.917,3.477-1.939,4.963-3.29C12.871,9.914,13.025,9.773,13.22,9.596z"/>
	<path fill-rule="evenodd" clip-rule="evenodd" fill="#014653" d="M22.665,16.668c0.731,0,1.329,0.593,1.335,1.324
		c0.005,0.74-0.612,1.359-1.347,1.349c-0.727-0.011-1.328-0.622-1.323-1.344C21.334,17.27,21.936,16.67,22.665,16.668z"/>
</g>
</svg>
