<?xml version="1.0" encoding="utf-8"?>
<!-- Generator: Adobe Illustrator 16.0.0, SVG Export Plug-In . SVG Version: 6.00 Build 0)  -->
<!DOCTYPE svg PUBLIC "-//W3C//DTD SVG 1.1//EN" "http://www.w3.org/Graphics/SVG/1.1/DTD/svg11.dtd">
<svg version="1.1" id="Layer_1" xmlns="http://www.w3.org/2000/svg" xmlns:xlink="http://www.w3.org/1999/xlink" x="0px" y="0px"
	 width="26.91px" height="17.139px" viewBox="0 0 26.91 17.139" enable-background="new 0 0 26.91 17.139" xml:space="preserve">
<g id="Group_70" transform="translate(-312.56 -132.855)">
	<path id="Path_170" fill="#DFFF00" d="M339.47,134.518c-0.221,0.428-0.588,0.762-1.035,0.94c-1.291,0.631-2.585,1.255-3.877,1.887
		c-0.133,0.063-0.258,0.146-0.418,0.235c0.33,0.102,0.632,0.183,0.919,0.295c0.335,0.135,0.655,0.302,0.983,0.449
		c0.451,0.22,0.754,0.659,0.8,1.159c0.221,0.732-0.194,1.507-0.927,1.728c-0.356,0.105-0.735,0.105-1.092,0
		c-1.227-0.343-2.449-0.691-3.673-1.049c-0.118-0.047-0.256-0.021-0.35,0.066c-0.349,0.282-0.7,0.553-1.08,0.845
		c0.2,0.058,0.396,0.127,0.589,0.208c0.415,0.188,0.814,0.402,1.2,0.646c0.586,0.459,0.772,1.264,0.448,1.935
		c-0.291,0.633-0.984,0.976-1.666,0.823c-0.76-0.154-1.51-0.361-2.258-0.566c-0.543-0.148-1.08-0.328-1.618-0.507
		c-0.144-0.058-0.307-0.036-0.431,0.057c-1.968,1.287-3.927,2.589-5.919,3.838c-1.356,0.881-2.804,1.609-4.317,2.179
		c-0.338,0.121-0.694,0.192-1.043,0.28c-0.338,0.081-0.694,0.002-0.965-0.216c-0.69-0.5-1.119-1.285-1.165-2.137
		c-0.013-0.149-0.019-0.299-0.017-0.449c-0.058-0.448,0.258-0.857,0.706-0.916c0.031-0.004,0.063-0.007,0.094-0.007
		c0.414-0.019,0.829-0.014,1.242,0.013c0.442,0.01,0.885,0.034,1.326,0.02c0.196-0.018,0.388-0.068,0.567-0.152
		c1.817-0.813,3.561-1.782,5.212-2.895c0.47-0.302,0.944-0.602,1.43-0.906c-0.1-0.077-0.187-0.151-0.28-0.216
		c-0.473-0.333-0.694-0.92-0.56-1.482c0.12-0.909,0.954-1.55,1.864-1.43c0.102,0.014,0.202,0.036,0.299,0.066
		c0.677,0.176,1.336,0.428,2,0.657c0.129,0.06,0.282,0.034,0.386-0.063c0.399-0.324,0.815-0.637,1.218-0.947
		c-0.21-0.156-0.411-0.293-0.6-0.449c-0.086-0.068-0.152-0.158-0.195-0.259c-0.301-0.638-0.232-1.389,0.177-1.962
		c0.31-0.433,0.854-0.63,1.368-0.495c0.73,0.157,1.446,0.38,2.163,0.59c0.146,0.052,0.304,0.038,0.438-0.037
		c2.021-1.059,4.043-2.114,6.067-3.169c0.251-0.177,0.554-0.269,0.858-0.26c0.472,0.034,0.867,0.362,0.99,0.818
		c0.058,0.166,0.09,0.34,0.135,0.51L339.47,134.518z"/>
</g>
</svg>
