<svg xmlns="http://www.w3.org/2000/svg" width="68.558" height="68.547" viewBox="0 0 68.558 68.547">
  <g id="Group_1233" data-name="Group 1233" transform="translate(-379.485 -379.498)">
    <path id="Path_294" data-name="Path 294" d="M434.022,457.144c-1.562,0-2.992.007-4.422,0a2.586,2.586,0,1,1,.014-5.148c1.222-.012,2.445-.035,3.665.01.618.023.755-.207.753-.781-.02-4.489-.012-8.978-.01-13.467,0-2.095.683-2.782,2.752-2.782q11.834,0,23.667-.01a1.821,1.821,0,0,1,1.457.6c1.829,1.889,3.727,3.711,5.555,5.6a1.958,1.958,0,0,1,.483,1.228c.04,3.156.021,6.312.021,9.6.978,0,1.894,0,2.811,0,.664,0,1.329-.017,1.992.017a2.564,2.564,0,0,1-.023,5.124c-.769.031-1.54.01-2.311.011h-2.393c-.021.376-.055.707-.055,1.037q0,9.762,0,19.523c0,1.805-.412,2.221-2.187,2.221H436.147c-1.686,0-2.123-.433-2.123-2.12q0-9.762,0-19.524Zm32.337,21.184V457.2H435.641v21.13ZM460.211,436.6c-.313-.02-.544-.048-.775-.048-7.619,0-15.238.007-22.857-.015-.773,0-1.02.275-1.017,1.023.021,4.566.009,9.132.013,13.7,0,.227.037.453.057.683H466.38v-9.175c-1.491,0-2.943,0-4.395,0-1.329,0-1.769-.44-1.773-1.761C460.207,439.55,460.211,438.1,460.211,436.6ZM451,453.556H432.514c-1.063,0-2.126-.014-3.187.017a.906.906,0,0,0-.966.951.941.941,0,0,0,.965,1.039c.237.022.478.014.717.014h39.524c1.009,0,2.019.006,3.028-.01a.934.934,0,0,0,1.042-.962c.021-.684-.392-1-1.045-1.043-.238-.014-.478-.007-.717-.007Zm10.819-12.415h3.146l-3.146-3.261Z" transform="translate(-37.239 -43.68)" fill="#2eacb3" fill-rule="evenodd"/>
    <path id="Path_295" data-name="Path 295" d="M595.81,386.46H577.4c-1.269,0-1.413-.147-1.414-1.416,0-1.488-.006-2.975,0-4.463,0-.85.234-1.079,1.1-1.079q11.6-.005,23.192,0a2.361,2.361,0,0,1,2.482,2.446q.022,11.636.01,23.271c0,.738-.346,1.057-1.075,1.05-1.541-.015-3.082,0-4.622-.005-1.041,0-1.254-.211-1.255-1.263q-.005-8.727,0-17.454Zm-18.229-1.581h1.031q8.721,0,17.443,0c1.213,0,1.329.116,1.33,1.319q0,8.761,0,17.522v.925h3.8v-.833q0-10.673,0-21.345c0-1.284-.128-1.414-1.414-1.414q-10.673,0-21.346,0c-.279,0-.558.024-.844.037Z" transform="translate(-154.737)" fill="#2eacb3" fill-rule="evenodd"/>
    <path id="Path_296" data-name="Path 296" d="M595.9,595.843v-1.249q0-8.527,0-17.054c0-1.434.086-1.516,1.549-1.516,1.434,0,2.869-.006,4.3,0,.857,0,1.089.231,1.089,1.087q.005,11.595,0,23.19a2.371,2.371,0,0,1-2.449,2.482q-11.635.02-23.27.01c-.738,0-1.064-.334-1.058-1.066.012-1.541,0-3.081,0-4.622,0-1.046.211-1.262,1.256-1.263q8.527-.005,17.054,0Zm-18.233,5.379H599.89c1.231,0,1.382-.149,1.382-1.367q0-10.679,0-21.357v-.852h-3.826v.982q0,8.607,0,17.213c0,1.551-.031,1.583-1.547,1.583H577.664Z" transform="translate(-154.799 -154.761)" fill="#2eacb3" fill-rule="evenodd"/>
    <path id="Path_297" data-name="Path 297" d="M386.462,386.5v2.128q0,8.084,0,16.168c0,1.4-.118,1.516-1.478,1.518-1.46,0-2.921-.01-4.38.012-.737.011-1.071-.306-1.07-1.044q.009-11.629.01-23.257A2.365,2.365,0,0,1,382,379.557q11.628-.017,23.256-.009c.746,0,1.048.36,1.042,1.081-.013,1.54,0,3.079,0,4.619,0,1.034-.216,1.249-1.27,1.25q-8.761,0-17.522,0Zm-1.569,18.222v-1.034q0-8.727,0-17.453c0-1.165.129-1.3,1.273-1.3q8.766,0,17.532,0h.957v-3.818h-.765q-10.719,0-21.438,0c-1.228,0-1.367.14-1.367,1.38q0,10.679,0,21.358v.862Z" transform="translate(-0.038 -0.04)" fill="#2eacb3" fill-rule="evenodd"/>
    <path id="Path_298" data-name="Path 298" d="M386.424,595.918h1.019q8.725,0,17.45,0c1.23,0,1.365.139,1.366,1.378,0,1.461,0,2.922,0,4.382,0,.906-.24,1.16-1.107,1.161q-11.593.006-23.187,0a2.355,2.355,0,0,1-2.469-2.454q-.016-11.634-.01-23.267c0-.745.344-1.053,1.071-1.046,1.54.015,3.081,0,4.621.005,1.054,0,1.244.189,1.244,1.265q.005,8.765,0,17.53Zm-5.361-18.232v.814q0,10.713,0,21.426c0,1.222.14,1.361,1.384,1.361q10.713,0,21.426,0c.255,0,.51-.028.775-.043v-3.781H386.3c-1.358,0-1.43-.075-1.43-1.458q0-8.682,0-17.363v-.954Z" transform="translate(0 -154.798)" fill="#2eacb3" fill-rule="evenodd"/>
    <path id="Path_299" data-name="Path 299" d="M509.857,582.021c3.29,0,6.579-.016,9.868.023a1.361,1.361,0,0,1,1.017.512c.263.455-.016.874-.551,1.006a3.032,3.032,0,0,1-.713.033H500.14c-.133,0-.265,0-.4,0-.536-.008-.972-.18-.97-.8s.436-.778.978-.778Q504.8,582.025,509.857,582.021Z" transform="translate(-93.937 -159.483)" fill="#2eacb3" fill-rule="evenodd"/>
    <path id="Path_300" data-name="Path 300" d="M509.872,611.595q-4.862,0-9.724,0c-.238,0-.527.063-.7-.047-.239-.149-.526-.426-.543-.666a1.1,1.1,0,0,1,.441-.738,1.2,1.2,0,0,1,.69-.1q9.843-.007,19.686,0c.236,0,.545-.035.691.093a1.248,1.248,0,0,1,.467.8c0,.22-.331.491-.576.629a1.578,1.578,0,0,1-.706.038Q514.734,611.6,509.872,611.595Z" transform="translate(-94.039 -181.544)" fill="#2eacb3" fill-rule="evenodd"/>
    <path id="Path_301" data-name="Path 301" d="M509.723,555.462h-9.481c-.212,0-.425,0-.637-.006-.49-.011-.838-.217-.849-.742-.013-.576.363-.779.881-.792.133,0,.266,0,.4,0q9.76,0,19.521,0a1.388,1.388,0,0,1,.7.064c.233.156.531.462.514.681a1.189,1.189,0,0,1-.546.741c-.192.124-.515.055-.78.055Q514.583,555.464,509.723,555.462Z" transform="translate(-93.924 -137.347)" fill="#2eacb3" fill-rule="evenodd"/>
    <path id="Path_302" data-name="Path 302" d="M479.481,581.976c.876,0,1.42.442,1.116.964a1.419,1.419,0,0,1-1.061.561,1.553,1.553,0,0,1-1.172-.512C478.01,582.436,478.552,581.975,479.481,581.976Z" transform="translate(-77.78 -159.45)" fill="#2eacb3" fill-rule="evenodd"/>
    <path id="Path_303" data-name="Path 303" d="M479.547,611.531c-.856,0-1.271-.322-1.144-.915.152-.709.733-.64,1.264-.653s.971.105,1.085.693C480.86,611.211,480.4,611.533,479.547,611.531Z" transform="translate(-77.88 -181.488)" fill="#2eacb3" fill-rule="evenodd"/>
    <path id="Path_304" data-name="Path 304" d="M479.664,555.635c-.649-.141-1.209-.2-1.194-.94s.6-.8,1.147-.739a2.443,2.443,0,0,1,1.059.355.717.717,0,0,1,.05.7A5.453,5.453,0,0,1,479.664,555.635Z" transform="translate(-77.949 -137.371)" fill="#2eacb3" fill-rule="evenodd"/>
    <path id="Path_305" data-name="Path 305" d="M509.454,494.817q-4.821,0-9.642,0c-.265,0-.592.074-.781-.051a1.422,1.422,0,0,1-.666-.805c-.023-.2.417-.5.7-.677.156-.1.415-.03.627-.03q9.721,0,19.443,0c.239,0,.526-.066.7.041.261.157.628.453.616.672a1.282,1.282,0,0,1-.581.787c-.186.128-.514.061-.779.061Q514.274,494.819,509.454,494.817Z" transform="translate(-93.617 -89.564)" fill="#2eacb3" fill-rule="evenodd"/>
    <path id="Path_306" data-name="Path 306" d="M479.5,494.8c-.862-.008-1.317-.416-1.111-1.022.232-.681.847-.6,1.338-.512a1.421,1.421,0,0,1,.953.6C480.933,494.4,480.38,494.805,479.5,494.8Z" transform="translate(-77.846 -89.545)" fill="#2eacb3" fill-rule="evenodd"/>
  </g>
</svg>
