<?xml version="1.0" encoding="utf-8"?>
<!-- Generator: Adobe Illustrator 16.0.0, SVG Export Plug-In . SVG Version: 6.00 Build 0)  -->
<!DOCTYPE svg PUBLIC "-//W3C//DTD SVG 1.1//EN" "http://www.w3.org/Graphics/SVG/1.1/DTD/svg11.dtd">
<svg version="1.1" id="Layer_1" xmlns="http://www.w3.org/2000/svg" xmlns:xlink="http://www.w3.org/1999/xlink" x="0px" y="0px"
	 width="17.188px" height="16.421px" viewBox="0 0 17.188 16.421" enable-background="new 0 0 17.188 16.421" xml:space="preserve">
<g>
	<path fill="#088DEF" d="M5.927,12.877h-2c-1.103,0-2-0.897-2-2V3.544c0-1.103,0.897-2,2-2V4.21c0,0.735,0.598,1.334,1.333,1.334
		h4.667c0.735,0,1.334-0.599,1.334-1.334V2.096l1.807,1.822c0.125,0.126,0.193,0.292,0.193,0.47v1.156
		c0,0.368,0.298,0.666,0.666,0.666c0.369,0,0.667-0.298,0.667-0.666V4.388c0-0.531-0.207-1.032-0.58-1.408l-2.157-2.177
		c-0.284-0.286-0.879-0.59-1.32-0.59C10.503,0.211,3.927,0.21,3.927,0.21c-1.838,0-3.333,1.496-3.333,3.334v7.333
		c0,1.838,1.495,3.333,3.333,3.333h2c0.369,0,0.667-0.298,0.667-0.666S6.296,12.877,5.927,12.877z M5.26,4.21V1.544h4.667V4.21H5.26
		z M7.594,11.544c-1.287,0-2.333-1.047-2.333-2.334c0-1.286,1.046-2.333,2.333-2.333S9.927,7.924,9.927,9.21
		c0,0.368-0.298,0.667-0.666,0.667c-0.369,0-0.667-0.299-0.667-0.667c0-0.551-0.448-1-1-1s-1,0.449-1,1c0,0.552,0.448,1,1,1
		c0.369,0,0.667,0.299,0.667,0.667S7.963,11.544,7.594,11.544z M16.008,8.13c-0.78-0.78-2.048-0.78-2.828,0l-4.472,4.471
		c-0.504,0.504-0.781,1.174-0.781,1.886v1.058c0,0.368,0.298,0.666,0.667,0.666h1.058c0.712,0,1.382-0.277,1.885-0.781l4.472-4.471
		c0.377-0.379,0.586-0.881,0.586-1.415C16.594,9.008,16.385,8.506,16.008,8.13L16.008,8.13z M15.065,10.015l-4.472,4.472
		c-0.252,0.252-0.587,0.391-0.942,0.391H9.26v-0.391c0-0.351,0.143-0.694,0.391-0.942l4.471-4.472c0.261-0.26,0.683-0.26,0.943,0
		c0.126,0.126,0.195,0.293,0.195,0.472S15.191,9.889,15.065,10.015z"/>
</g>
</svg>
