<svg xmlns="http://www.w3.org/2000/svg" width="19.5" height="19.762" viewBox="0 0 19.5 19.762">
  <g id="Group_154" data-name="Group 154" transform="translate(-242.871 -116.587)">
    <path id="Path_204" data-name="Path 204" d="M244.019,134.5h-1.148a8.058,8.058,0,0,1,1.5-4.749,8.219,8.219,0,0,1,3.987-3.031,5.393,5.393,0,0,1-2.724-4.81,5.215,5.215,0,0,1,1.714-3.864,5.394,5.394,0,0,1,7.663.29,5.249,5.249,0,0,1,1.37,2.844,5.313,5.313,0,0,1-.465,3.15,5.461,5.461,0,0,1-2.16,2.349c.344.153.654.27.944.426.382.205.743.449,1.123.659a.441.441,0,0,0,.332.036,4.451,4.451,0,1,1,1.394,8.529,4.453,4.453,0,0,1-2.767-7.6l.159-.167a6.959,6.959,0,0,0-5.988-.817,6.85,6.85,0,0,0-3.573,2.581A7.1,7.1,0,0,0,244.019,134.5Zm7.026-16.746a4.249,4.249,0,1,0,4.243,4.258A4.243,4.243,0,0,0,251.045,117.754Zm6.858,17.432a3.292,3.292,0,1,0-3.28-3.317A3.3,3.3,0,0,0,257.9,135.186Z" transform="translate(0 0)" fill="#222" fill-rule="evenodd"/>
    <path id="Path_205" data-name="Path 205" d="M511.235,362.892l-.825.833c-.521-.522-1.046-1.044-1.565-1.572a.263.263,0,0,1-.063-.169c0-.868,0-1.737,0-2.625h1.153a11.152,11.152,0,0,1-.01,1.346,1.535,1.535,0,0,0,.642,1.544A7.35,7.35,0,0,1,511.235,362.892Z" transform="translate(-251.442 -229.564)" fill="#222" fill-rule="evenodd"/>
  </g>
</svg>
